# Blender 4.5.0
# www.blender.org
mtllib Model1.mtl
o Cube
v 1.000000 1.000000 -1.000000
v 1.000000 -1.000000 -1.000000
v 1.000000 1.000000 1.000000
v 1.000000 -1.000000 1.000000
v -1.000000 1.000000 -1.000000
v -1.000000 -1.000000 -1.000000
v -1.000000 1.000000 1.000000
v -1.000000 -1.000000 1.000000
v 1.000180 2.348948 0.500406
v -1.000000 1.848503 1.000000
v 1.000000 2.348503 -0.500000
v -1.000000 1.848503 -1.000000
v 2.575811 1.000000 2.575811
v -1.000000 1.000000 3.228534
v 3.228534 1.000000 -1.000000
v 1.000000 2.959698 0.500000
v 1.000000 2.959698 -0.500000
v -0.805832 3.459698 0.805832
v -1.000000 3.265530 1.000000
v -0.943130 3.402827 0.943130
v -0.805832 3.459698 -0.805832
v -1.000000 3.265530 -1.000000
v -0.943130 3.402827 -0.943130
v 0.805832 3.459698 -0.805832
v 0.943130 3.402827 -0.943130
v 0.805832 3.459698 0.805832
v 0.943130 3.402827 0.943130
v 0.868273 1.848503 -1.000000
v 1.000000 1.980231 -0.868273
v 1.000000 1.848503 -0.868273
v 1.131727 1.848503 -1.000000
v 1.000000 1.716776 -1.000000
v 0.961418 1.887085 -0.961418
v 1.014758 2.015972 0.899016
v 0.892212 1.909784 1.052381
v 1.105544 1.878878 1.119001
v 1.015290 1.885598 0.900052
v 0.980698 1.935141 1.002549
v 1.000000 3.184957 -0.868273
v 0.868273 3.265530 -1.000000
v 0.952920 3.379191 -0.952920
v 1.000000 3.265530 -0.868273
v 0.961418 3.241930 -0.961418
v 0.868273 3.265530 1.000000
v 1.000000 3.184957 0.868273
v 1.000000 3.265530 0.868273
v 0.952920 3.379191 0.952920
v 0.961418 3.241930 0.961418
v 2.575811 1.451289 2.575811
v 2.234361 1.848503 2.234361
v 2.185053 1.848503 2.647140
v 2.530066 1.649896 2.530066
v 2.405086 1.795287 2.405086
v 2.824756 1.848503 -1.000000
v 3.228534 1.451289 -1.000000
v 3.026645 1.795287 -1.000000
v 3.174438 1.649896 -1.000000
v -0.704876 1.848503 3.174663
v -1.000000 1.848503 2.928534
v -1.000000 1.548503 3.228534
v -1.000000 -1.000000 -0.008541
v 1.000000 1.000000 -0.008541
v -1.000000 1.000000 -0.008541
v 1.000000 -1.000000 -0.008541
v -1.000000 1.848503 -0.008541
v 2.904960 1.000000 0.772635
v 0.805832 3.459698 -0.006883
v 0.943130 3.402827 -0.008055
v -0.805832 3.459698 -0.006883
v -0.943130 3.402827 -0.008055
v -1.000000 3.265530 -0.008541
v 2.532080 1.848503 0.603368
v 2.718520 1.795287 0.688002
v 2.855004 1.649896 0.749958
v 2.904960 1.451289 0.772635
v 1.000000 0.264390 -1.000000
v -1.000000 0.264390 1.000000
v 1.000000 0.264390 1.000000
v -1.000000 0.264390 -1.000000
v 1.000000 0.264390 -0.008541
v -1.000000 0.264390 -0.008541
v 1.000000 -0.421319 -1.000000
v 1.000000 -0.421319 1.000000
v -1.000000 -0.421319 -1.000000
v 1.000000 -0.421319 -0.008541
v -1.000000 -0.421319 -0.008541
v -1.000000 -0.421319 1.000000
v -0.612409 -0.421319 0.612409
v -0.612409 0.264390 0.612409
v -0.451864 0.264390 -0.008541
v 0.612409 0.264390 -0.612409
v 0.451864 0.264390 -0.008541
v -0.612409 0.264390 -0.612409
v 0.612409 0.264390 0.612409
v 0.612409 -0.421319 -0.612409
v 0.612409 -0.421319 0.612409
v -0.612409 -0.421319 -0.612409
v 0.451864 -0.421319 -0.008541
v -0.451864 -0.421319 -0.008541
vn -0.0000 -0.0000 1.0000
vn -1.0000 -0.0000 -0.0000
vn -0.0000 -1.0000 -0.0000
vn 1.0000 -0.0000 -0.0000
vn -0.0000 -0.0000 -1.0000
vn 1.0000 0.0001 -0.0001
vn -0.0000 0.9239 0.3827
vn 0.3827 0.9239 -0.0000
vn -0.3827 0.9239 -0.0000
vn -0.9239 0.3827 -0.0000
vn -0.0000 0.9239 -0.3827
vn -0.0000 1.0000 -0.0000
vn 0.3131 0.4965 -0.8096
vn 0.5840 0.7874 0.1975
vn 0.7684 0.0672 -0.6364
vn 0.7684 0.0672 0.6364
vn 0.9369 0.0230 0.3488
vn 0.4370 0.0387 0.8986
vn 0.9239 -0.0000 -0.3827
vn 0.3827 -0.0000 -0.9239
vn 0.9999 0.0145 -0.0066
vn -0.0142 0.0188 0.9997
vn 0.9998 0.0081 -0.0179
vn -0.0000 0.3827 -0.9239
vn 0.9239 0.3827 -0.0000
vn -0.0000 0.3827 0.9239
vn 0.4562 0.2982 0.8384
vn 0.5529 0.7631 0.3348
vn 0.2681 0.9629 0.0320
vn 0.2546 0.9659 0.0465
vn 0.6956 0.7071 0.1270
vn 0.9502 0.2588 0.1735
vn 0.0137 0.9999 -0.0049
vn 0.9837 -0.0000 0.1796
vn -0.5080 0.6091 0.6091
vn 0.1796 -0.0000 0.9837
vn -0.0040 0.9999 0.0158
vn -0.9682 -0.0000 -0.2503
vn 0.9664 -0.0000 0.2569
vn 0.9682 -0.0000 -0.2503
vn -0.9664 -0.0000 0.2569
vt 0.533049 0.750000
vt 0.625000 0.750000
vt 0.625000 1.000000
vt 0.533049 1.000000
vt 0.533049 0.126068
vt 0.625000 0.126068
vt 0.625000 0.250000
vt 0.533049 0.250000
vt 0.125000 0.623932
vt 0.375000 0.623932
vt 0.375000 0.750000
vt 0.125000 0.750000
vt 0.533049 0.623932
vt 0.625000 0.623932
vt 0.625000 0.500000
vt 0.533049 0.500000
vt 0.625000 0.687500
vt 0.625000 0.562500
vt 0.625000 0.562500
vt 0.625000 0.000000
vt 0.649271 0.725729
vt 0.850729 0.725729
vt 0.870176 0.747715
vt 0.628554 0.746446
vt 0.649271 0.624140
vt 0.627611 0.623019
vt 0.850729 0.624140
vt 0.850729 0.524271
vt 0.871446 0.503554
vt 0.870816 0.624592
vt 0.625000 0.129592
vt 0.625000 0.250000
vt 0.649271 0.524271
vt 0.626684 0.501684
vt 0.625000 0.483534
vt 0.625000 0.499549
vt 0.625000 0.516093
vt 0.625000 0.516466
vt 0.625000 0.500000
vt 0.625000 0.733534
vt 0.625000 0.749665
vt 0.641426 0.750000
vt 0.625000 0.750000
vt 0.625000 0.733534
vt 0.625000 0.516466
vt 0.625000 0.500281
vt 0.625000 0.483623
vt 0.626394 0.501394
vt 0.641466 0.750000
vt 0.625281 0.750000
vt 0.625000 0.733829
vt 0.625000 0.733534
vt 0.627943 0.747058
vt 0.875000 0.750000
vt 0.875000 0.750000
vt 0.625000 0.750000
vt 0.642565 0.759755
vt 0.625000 0.759443
vt 0.625000 0.777320
vt 0.625000 0.768885
vt 0.625000 0.623932
vt 0.625000 0.747470
vt 0.625000 0.622827
vt 0.625000 0.500000
vt 0.625000 0.500296
vt 0.626628 0.977739
vt 0.625000 0.976037
vt 0.853463 0.750904
vt 0.625000 0.007109
vt 0.125000 0.500000
vt 0.375000 0.500000
vt 0.533049 0.000000
vt 0.447335 0.623932
vt 0.447335 0.500000
vt 0.447335 1.000000
vt 0.447335 0.750000
vt 0.447335 0.250000
vt 0.375000 1.000000
vt 0.375000 0.126068
vt 0.447335 0.126068
vt 0.375000 0.250000
vt 0.375000 0.000000
vt 0.447335 0.000000
s 0
usemtl Material
f 78/1/1 3/2/1 7/3/1 77/4/1
f 81/5/2 63/6/2 5/7/2 79/8/2
f 61/9/3 64/10/3 4/11/3 8/12/3
f 80/13/4 62/14/4 3/2/4 78/1/4
f 79/8/5 5/7/5 1/15/5 76/16/5
f 9/17/6 11/18/6 17/19/6 16/17/6
f 62/14/3 1/15/3 15/15/3 66/14/3
f 63/6/2 7/20/2 10/20/2 65/6/2
f 7/3/3 3/2/3 13/2/3 14/3/3
f 26/21/7 18/22/7 20/23/7 27/24/7
f 67/25/8 26/21/8 27/24/8 68/26/8
f 69/27/9 21/28/9 23/29/9 70/30/9
f 70/31/10 23/32/10 22/32/10 71/6/10
f 21/28/11 24/33/11 25/34/11 23/29/11
f 67/25/12 69/27/12 18/22/12 26/21/12
f 65/6/2 10/20/2 19/20/2 71/6/2
f 28/35/13 33/36/13 29/37/13 30/38/13 31/15/13 32/39/13
f 34/40/14 38/41/14 35/42/14 36/43/14 37/44/14
f 39/45/15 43/46/15 40/47/15 41/48/15 42/45/15
f 44/49/16 48/50/16 45/51/16 46/52/16 47/53/16
f 34/40/17 45/51/17 48/50/17 38/41/17
f 38/41/18 48/50/18 44/49/18 35/42/18
f 39/45/19 29/37/19 33/36/19 43/46/19
f 43/46/20 33/36/20 28/35/20 40/47/20
f 11/18/21 9/17/21 34/40/21 37/44/21 30/38/21 29/37/21
f 17/19/4 11/18/4 29/37/4 39/45/4
f 28/35/5 12/7/5 22/32/5 40/47/5
f 1/15/5 5/7/5 12/7/5 28/35/5 32/39/5
f 10/54/22 35/42/22 44/49/22 19/55/22
f 9/17/23 16/17/23 45/51/23 34/40/23
f 23/32/24 25/34/24 41/48/24 40/47/24 22/32/24
f 25/34/25 68/26/25 27/24/25 47/53/25 46/52/25 42/45/25 41/48/25
f 16/17/4 17/19/4 39/45/4 42/45/4 46/52/4 45/51/4
f 27/24/26 20/23/26 19/55/26 44/49/26 47/53/26
f 49/56/27 52/2/27 51/57/27
f 52/2/28 53/58/28 51/59/28
f 53/58/29 50/60/29 51/59/29
f 72/61/30 50/56/30 53/2/30 73/14/30
f 73/14/31 53/2/31 52/62/31 74/63/31
f 74/63/32 52/62/32 49/56/32 75/14/32
f 31/15/33 30/38/33 37/44/33 36/43/33 50/56/33 72/61/33 54/64/33
f 66/14/34 15/15/34 55/39/34 75/14/34
f 1/15/5 32/39/5 31/15/5 54/64/5 56/15/5 57/65/5 55/39/5 15/15/5
f 58/66/35 59/54/35 60/67/35
f 14/3/36 13/2/36 49/56/36 51/57/36 58/66/36 60/67/36
f 10/20/2 7/20/2 14/20/2 60/20/2 59/20/2
f 36/43/37 35/42/37 10/54/37 59/54/37 58/68/37 51/57/37 50/56/37
f 13/2/34 66/14/34 75/14/34 49/56/34
f 57/65/32 74/63/32 75/14/32 55/39/32
f 56/15/31 73/14/31 74/63/31 57/65/31
f 54/64/30 72/61/30 73/14/30 56/15/30
f 12/7/2 65/6/2 71/6/2 22/32/2
f 24/33/12 21/28/12 69/27/12 67/25/12
f 20/69/10 70/31/10 71/6/10 19/20/10
f 18/22/9 69/27/9 70/30/9 20/23/9
f 24/33/8 67/25/8 68/26/8 25/34/8
f 5/7/2 63/6/2 65/6/2 12/7/2
f 3/2/3 62/14/3 66/14/3 13/2/3
f 76/16/4 1/15/4 62/14/4 80/13/4
f 6/70/3 2/71/3 64/10/3 61/9/3
f 77/72/2 7/20/2 63/6/2 81/5/2
f 85/73/12 82/74/12 95/74/12 98/73/12
f 79/8/3 76/16/3 91/16/3 93/8/3
f 87/75/12 83/76/12 96/76/12 88/75/12
f 78/1/3 77/4/3 89/4/3 94/1/3
f 82/74/12 84/77/12 97/77/12 95/74/12
f 76/16/3 80/13/3 92/13/3 91/16/3
f 4/11/1 83/76/1 87/75/1 8/78/1
f 61/79/2 86/80/2 84/77/2 6/81/2
f 64/10/4 85/73/4 83/76/4 4/11/4
f 6/81/5 84/77/5 82/74/5 2/71/5
f 2/71/4 82/74/4 85/73/4 64/10/4
f 8/82/2 87/83/2 86/80/2 61/79/2
f 88/83/38 89/72/38 90/5/38 99/80/38
f 95/74/39 91/16/39 92/13/39 98/73/39
f 97/77/5 93/8/5 91/16/5 95/74/5
f 98/73/40 92/13/40 94/1/40 96/76/40
f 99/80/41 90/5/41 93/8/41 97/77/41
f 96/76/1 94/1/1 89/4/1 88/75/1
f 84/77/12 86/80/12 99/80/12 97/77/12
f 80/13/3 78/1/3 94/1/3 92/13/3
f 86/80/12 87/83/12 88/83/12 99/80/12
f 77/72/3 81/5/3 90/5/3 89/72/3
f 83/76/12 85/73/12 98/73/12 96/76/12
f 81/5/3 79/8/3 93/8/3 90/5/3
